<svg t="1673918777816" class="icon" viewBox="0 0 1024 1024" version="1.1" xmlns="http://www.w3.org/2000/svg" p-id="3665" width="32" height="32"><path d="M736.768 905.728c-134.656 0-243.712-109.056-243.712-243.712s109.056-243.712 243.712-243.712 243.712 109.056 243.712 243.712-109.056 243.712-243.712 243.712z m0-40.96c112.128 0 203.264-91.136 203.264-203.264s-91.136-203.264-203.264-203.264-203.264 91.136-203.264 203.264 91.136 203.264 203.264 203.264z" p-id="3666" fill="#f4ea2a"></path><path d="M541.696 830.976H107.008V175.104h567.296v209.408c0 12.288 9.216 23.552 22.528 27.136h0.512c19.968 5.632 39.936-8.192 39.936-27.136V146.432c0-15.872-14.336-28.672-31.744-28.672H75.264c-17.408 0-31.744 12.8-31.744 28.672v713.216c0 15.872 14.336 28.672 31.744 28.672h453.632c31.232 0 45.568-35.328 21.504-53.76l-1.024-1.024c-2.048-1.536-5.12-2.56-7.68-2.56z" p-id="3667" fill="#f4ea2a"></path><path d="M270.848 346.624h-48.128c-9.216 0-16.896-7.68-16.896-16.896V281.6c0-9.216 7.68-16.896 16.896-16.896h48.128c9.216 0 16.896 7.68 16.896 16.896v48.128c0 9.728-7.168 16.896-16.896 16.896zM414.72 346.624h-48.128c-9.216 0-16.896-7.68-16.896-16.896V281.6c0-9.216 7.68-16.896 16.896-16.896H414.72c9.216 0 16.896 7.68 16.896 16.896v48.128c-0.512 9.728-7.68 16.896-16.896 16.896zM558.08 346.624h-48.128c-9.216 0-16.896-7.68-16.896-16.896V281.6c0-9.216 7.68-16.896 16.896-16.896h48.128c9.216 0 16.896 7.68 16.896 16.896v48.128c0 9.728-7.68 16.896-16.896 16.896z" fill="#f4ea2a" p-id="3668"></path><path d="M270.848 544.256h-48.128c-9.216 0-16.896-7.68-16.896-16.896v-48.128c0-9.216 7.68-16.896 16.896-16.896h48.128c9.216 0 16.896 7.68 16.896 16.896v48.128c0 9.216-7.168 16.896-16.896 16.896zM414.72 544.256h-48.128c-9.216 0-16.896-7.68-16.896-16.896v-48.128c0-9.216 7.68-16.896 16.896-16.896H414.72c9.216 0 16.896 7.68 16.896 16.896v48.128c-0.512 9.216-7.68 16.896-16.896 16.896z" fill="#f4ea2a" p-id="3669"></path><path d="M270.848 741.376h-48.128c-9.216 0-16.896-7.68-16.896-16.896v-48.128c0-9.216 7.68-16.896 16.896-16.896h48.128c9.216 0 16.896 7.68 16.896 16.896v48.128c0 9.216-7.168 16.896-16.896 16.896zM414.72 741.376h-48.128c-9.216 0-16.896-7.68-16.896-16.896v-48.128c0-9.216 7.68-16.896 16.896-16.896H414.72c9.216 0 16.896 7.68 16.896 16.896v48.128c-0.512 9.216-7.68 16.896-16.896 16.896z" fill="#f4ea2a" p-id="3670"></path><path d="M632.832 744.448V563.2c0-8.704-7.68-15.872-17.408-15.872s-17.408 7.168-17.408 15.872v193.536c0 16.384 14.336 29.696 32.256 29.696h226.816c9.728 0 17.408-7.168 17.408-15.872 0-8.704-7.68-15.872-17.408-15.872h-213.504c-5.632 0.512-10.752-4.096-10.752-10.24z" p-id="3671" fill="#f4ea2a"></path><path d="M754.688 603.648h16.896c9.216 0 16.896 8.704 16.896 18.944v95.232c0 10.752-7.68 18.944-16.896 18.944h-16.896c-9.216 0-16.896-8.704-16.896-18.944v-95.232c-0.512-10.24 7.168-18.944 16.896-18.944zM835.584 556.544h16.896c9.216 0 16.896 11.776 16.896 26.112v129.536c0 14.336-7.68 26.112-16.896 26.112h-16.896c-9.216 0-16.896-11.776-16.896-26.112v-129.536c0-14.336 7.168-26.112 16.896-26.112zM673.28 662.528h16.896c9.216 0 16.896 8.704 16.896 18.944v38.4c0 10.752-7.68 18.944-16.896 18.944h-16.896c-9.216 0-16.896-8.704-16.896-18.944v-38.4c0-10.752 7.68-18.944 16.896-18.944z" p-id="3672" fill="#f4ea2a"></path></svg>
