<svg t="1694623033335" class="icon" viewBox="0 0 1024 1024" version="1.1" xmlns="http://www.w3.org/2000/svg" p-id="54262" width="200" height="200"><path d="M9.436 346.946h1005.37v326.71H9.437z" fill="#F95F5D" p-id="54263"></path><path d="M1014.807 346.946V86.623c0-32.283-28.885-61.046-63.23-61.046H72.545c-34.346 0-63.23 28.763-63.23 61.046v260.323h1005.492z m0 0" fill="#55C7F7" p-id="54264"></path><path d="M9.436 673.655V933.98c0 32.283 28.642 61.046 62.745 61.046h879.881c34.103 0 62.745-28.763 62.745-61.046V673.655H9.436z m0 0" fill="#7ECF3B" p-id="54265"></path><path d="M402.53 25.577h224.4v969.448h-224.4z" fill="#FDAF42" p-id="54266"></path><path d="M626.93 445.736v136.412H391.85V445.736h235.08m37.745-55.706H354.107c-5.34 0-14.321 5.34-14.321 14.321v217.24c0 5.34 5.34 14.32 14.32 14.32h310.569c5.34 0 14.32-5.34 14.32-14.32V404.35c-3.52-10.68-8.98-14.32-14.32-14.32z m0 0" fill="#FFFFFF" p-id="54267"></path></svg>
